<svg width="533" height="95" viewBox="0 0 533 95" fill="none" xmlns="http://www.w3.org/2000/svg">
<path d="M28.952 92L27.0472 92.6096L27.4921 94H28.952V92ZM0.28 2.39999V0.399994H-2.4599L-1.62485 3.00954L0.28 2.39999ZM31.384 2.39999L33.2963 1.81432L32.8632 0.399994H31.384V2.39999ZM54.552 78.048V80.048H57.2562L56.4643 77.4623L54.552 78.048ZM38.936 78.048L37.0339 77.43L36.1834 80.048H38.936V78.048ZM63.512 2.39999V0.399994H62.0589L61.6099 1.78204L63.512 2.39999ZM91.288 2.39999L93.2021 1.82025L92.772 0.399994H91.288V2.39999ZM114.2 78.048V80.048H116.895L116.114 77.4683L114.2 78.048ZM99.224 78.048L97.319 77.4388L96.4846 80.048H99.224V78.048ZM123.416 2.39999V0.399994H121.956L121.511 1.79079L123.416 2.39999ZM152.088 2.39999L153.993 3.00954L154.828 0.399994H152.088V2.39999ZM123.416 92V94H124.876L125.321 92.6096L123.416 92ZM91.032 92L89.1172 92.5776L89.5463 94H91.032V92ZM72.344 30.048V28.048H69.6517L70.4292 30.6256L72.344 30.048ZM81.048 30.048L82.9539 30.6544L83.7832 28.048H81.048V30.048ZM61.336 92V94H62.7984L63.2419 92.6064L61.336 92ZM30.8568 91.3904L2.18485 1.79044L-1.62485 3.00954L27.0472 92.6096L30.8568 91.3904ZM0.28 4.39999H31.384V0.399994H0.28V4.39999ZM29.4717 2.98566L52.6397 78.6337L56.4643 77.4623L33.2963 1.81432L29.4717 2.98566ZM54.552 76.048H38.936V80.048H54.552V76.048ZM40.8381 78.666L65.4141 3.01795L61.6099 1.78204L37.0339 77.43L40.8381 78.666ZM63.512 4.39999H91.288V0.399994H63.512V4.39999ZM89.3739 2.97974L112.286 78.6277L116.114 77.4683L93.2021 1.82025L89.3739 2.97974ZM114.2 76.048H99.224V80.048H114.2V76.048ZM101.129 78.6572L125.321 3.00919L121.511 1.79079L97.319 77.4388L101.129 78.6572ZM123.416 4.39999H152.088V0.399994H123.416V4.39999ZM150.183 1.79044L121.511 91.3904L125.321 92.6096L153.993 3.00954L150.183 1.79044ZM123.416 90H91.032V94H123.416V90ZM92.9468 91.4224L74.2588 29.4704L70.4292 30.6256L89.1172 92.5776L92.9468 91.4224ZM72.344 32.048H81.048V28.048H72.344V32.048ZM79.1422 29.4416L59.4301 91.3936L63.2419 92.6064L82.9539 30.6544L79.1422 29.4416ZM61.336 90H28.952V94H61.336V90ZM184.298 90.592L183.596 92.4647L183.604 92.4678L184.298 90.592ZM168.298 80.864L166.926 82.3188L166.933 82.3257L166.94 82.3325L168.298 80.864ZM157.674 65.888L155.839 66.6824L155.844 66.6939L155.849 66.7053L157.674 65.888ZM157.674 28.512L155.849 27.6946L155.843 27.7075L157.674 28.512ZM168.298 13.664L169.656 15.1325L169.663 15.1257L169.67 15.1188L168.298 13.664ZM184.298 3.808L183.604 1.93217L183.596 1.93534L184.298 3.808ZM224.746 3.808L224.044 5.68066L224.746 3.808ZM240.746 13.664L239.374 15.1188L239.381 15.1257L239.388 15.1325L240.746 13.664ZM251.242 28.512L249.407 29.3064L249.414 29.3231L249.421 29.3396L251.242 28.512ZM251.242 65.888L249.417 65.0707L249.412 65.0821L249.407 65.0936L251.242 65.888ZM240.746 80.864L242.104 82.3325L242.111 82.3257L242.118 82.3188L240.746 80.864ZM224.746 90.592L224.044 88.7193L224.746 90.592ZM212.33 68.064L211.565 66.216L211.554 66.2208L211.542 66.2257L212.33 68.064ZM218.73 63.712L217.285 62.3296L217.283 62.331L218.73 63.712ZM223.082 56.672L224.955 57.3742L224.958 57.3649L224.962 57.3555L223.082 56.672ZM223.082 37.856L221.202 38.5395L221.206 38.5489L221.209 38.5583L223.082 37.856ZM218.73 30.816L217.253 32.1645L217.284 32.1981L217.316 32.2302L218.73 30.816ZM212.33 26.336L211.542 28.1743L211.554 28.1792L211.565 28.184L212.33 26.336ZM196.586 26.336L195.821 24.488L195.81 24.4928L195.798 24.4977L196.586 26.336ZM190.186 30.816L188.741 29.4336L188.739 29.435L190.186 30.816ZM185.962 37.856L187.835 38.5582L187.838 38.5489L187.842 38.5395L185.962 37.856ZM185.962 56.672L184.082 57.3555L184.086 57.3649L184.089 57.3742L185.962 56.672ZM190.186 63.712L188.709 65.0605L188.74 65.0941L188.772 65.1262L190.186 63.712ZM196.586 68.064L195.798 69.9023L195.81 69.9072L195.821 69.912L196.586 68.064ZM204.522 92.048C197.484 92.048 190.979 90.9308 184.992 88.7162L183.604 92.4678C190.075 94.8612 197.054 96.048 204.522 96.048V92.048ZM185 88.7193C179.083 86.5003 173.976 83.3896 169.656 79.3955L166.94 82.3325C171.665 86.701 177.225 90.0757 183.596 92.4647L185 88.7193ZM169.67 79.4092C165.341 75.3245 161.953 70.5496 159.499 65.0707L155.849 66.7053C158.515 72.661 162.21 77.8701 166.926 82.3188L169.67 79.4092ZM159.509 65.0936C157.152 59.647 155.962 53.6907 155.962 47.2H151.962C151.962 54.1919 153.247 60.6943 155.839 66.6824L159.509 65.0936ZM155.962 47.2C155.962 40.6198 157.153 34.6684 159.505 29.3165L155.843 27.7075C153.245 33.6196 151.962 40.1269 151.962 47.2H155.962ZM159.499 29.3293C161.951 23.8541 165.335 19.1274 169.656 15.1325L166.94 12.1954C162.216 16.5632 158.517 21.7352 155.849 27.6947L159.499 29.3293ZM169.67 15.1188C173.989 11.0446 179.091 7.89655 185 5.68066L183.596 1.93534C177.217 4.32744 171.652 7.7501 166.926 12.2092L169.67 15.1188ZM184.992 5.68381C190.979 3.46919 197.484 2.352 204.522 2.352V-1.648C197.054 -1.648 190.075 -0.461193 183.604 1.93219L184.992 5.68381ZM204.522 2.352C211.649 2.352 218.149 3.47024 224.044 5.68066L225.448 1.93534C219.055 -0.462242 212.072 -1.648 204.522 -1.648V2.352ZM224.044 5.68066C229.953 7.89655 235.055 11.0446 239.374 15.1188L242.118 12.2092C237.392 7.7501 231.827 4.32744 225.448 1.93534L224.044 5.68066ZM239.388 15.1325C243.704 19.1227 247.041 23.8416 249.407 29.3064L253.077 27.7176C250.493 21.7477 246.833 16.568 242.104 12.1954L239.388 15.1325ZM249.421 29.3396C251.851 34.6859 253.082 40.629 253.082 47.2H257.082C257.082 40.1176 255.753 33.6021 253.063 27.6844L249.421 29.3396ZM253.082 47.2C253.082 53.6814 251.853 59.6296 249.417 65.0707L253.067 66.7053C255.751 60.7117 257.082 54.2013 257.082 47.2H253.082ZM249.407 65.0936C247.04 70.5621 243.698 75.3293 239.374 79.4092L242.118 82.3188C246.839 77.8653 250.495 72.6485 253.077 66.6824L249.407 65.0936ZM239.388 79.3955C235.068 83.3896 229.961 86.5003 224.044 88.7193L225.448 92.4647C231.819 90.0757 237.379 86.701 242.104 82.3325L239.388 79.3955ZM224.044 88.7193C218.149 90.9298 211.649 92.048 204.522 92.048V96.048C212.072 96.048 219.055 94.8622 225.448 92.4647L224.044 88.7193ZM204.522 71.6C207.586 71.6 210.459 71.0416 213.118 69.9023L211.542 66.2257C209.422 67.1344 207.09 67.6 204.522 67.6V71.6ZM213.095 69.912C215.818 68.785 218.186 67.1783 220.177 65.0929L217.283 62.331C215.69 64.0004 213.791 65.295 211.565 66.216L213.095 69.912ZM220.175 65.0944C222.253 62.9222 223.843 60.3393 224.955 57.3742L221.209 55.9697C220.273 58.466 218.962 60.5765 217.285 62.3296L220.175 65.0944ZM224.962 57.3555C226.077 54.2871 226.618 50.8935 226.618 47.2H222.618C222.618 50.5039 222.135 53.4249 221.202 55.9885L224.962 57.3555ZM226.618 47.2C226.618 43.5081 226.078 40.1488 224.955 37.1537L221.209 38.5583C222.134 41.0245 222.618 43.8945 222.618 47.2H226.618ZM224.962 37.1725C223.851 34.1173 222.253 31.5109 220.144 29.4018L217.316 32.2302C218.961 33.8758 220.265 35.9627 221.202 38.5395L224.962 37.1725ZM220.207 29.4675C218.215 27.2863 215.838 25.6233 213.095 24.488L211.565 28.184C213.771 29.0967 215.66 30.4203 217.253 32.1645L220.207 29.4675ZM213.118 24.4977C210.459 23.3584 207.586 22.8 204.522 22.8V26.8C207.09 26.8 209.422 27.2656 211.542 28.1743L213.118 24.4977ZM204.522 22.8C201.457 22.8 198.551 23.3585 195.821 24.488L197.351 28.184C199.571 27.2655 201.955 26.8 204.522 26.8V22.8ZM195.798 24.4977C193.15 25.6326 190.796 27.2851 188.741 29.4336L191.631 32.1984C193.331 30.4216 195.243 29.0874 197.374 28.1743L195.798 24.4977ZM188.739 29.435C186.729 31.541 185.186 34.1365 184.082 37.1725L187.842 38.5395C188.786 35.9435 190.059 33.8456 191.633 32.197L188.739 29.435ZM184.089 37.1538C182.966 40.1488 182.426 43.5081 182.426 47.2H186.426C186.426 43.8945 186.91 41.0245 187.835 38.5582L184.089 37.1538ZM182.426 47.2C182.426 50.8935 182.967 54.2871 184.082 57.3555L187.842 55.9885C186.909 53.4249 186.426 50.5039 186.426 47.2H182.426ZM184.089 57.3742C185.194 60.3203 186.729 62.8921 188.709 65.0605L191.663 62.3635C190.059 60.6066 188.778 58.485 187.835 55.9697L184.089 57.3742ZM188.772 65.1262C190.825 67.1795 193.17 68.7759 195.798 69.9023L197.374 66.2257C195.223 65.3041 193.302 63.9991 191.6 62.2978L188.772 65.1262ZM195.821 69.912C198.551 71.0415 201.457 71.6 204.522 71.6V67.6C201.955 67.6 199.571 67.1345 197.351 66.216L195.821 69.912ZM266.046 92H264.046V94H266.046V92ZM266.046 2.39999V0.399994H264.046V2.39999H266.046ZM330.814 6.49599L329.992 8.31938L330.002 8.32362L330.814 6.49599ZM345.022 18.272L343.345 19.362L343.349 19.3684L343.354 19.3749L345.022 18.272ZM345.022 54.112L346.682 55.228L346.686 55.2215L346.69 55.2149L345.022 54.112ZM330.814 65.504L330.023 63.667L330.014 63.6711L330.814 65.504ZM282.814 69.472L281.457 68.0029L277.702 71.472H282.814V69.472ZM296.254 57.056H298.254V52.4856L294.897 55.5869L296.254 57.056ZM296.254 92V94H298.254V92H296.254ZM319.678 92L318.02 93.1184L318.615 94H319.678V92ZM297.662 59.36V57.36H293.901L296.004 60.4784L297.662 59.36ZM329.662 59.36L331.314 58.2327L330.719 57.36H329.662V59.36ZM351.934 92V94H355.72L353.586 90.8727L351.934 92ZM296.254 60.384L294.827 61.7848L298.254 65.2776V60.384H296.254ZM282.814 46.688V44.688H278.049L281.387 48.0888L282.814 46.688ZM316.478 43.872L315.127 42.3977L315.111 42.412L315.096 42.4267L316.478 43.872ZM316.478 28.512L315.096 29.9573L315.111 29.972L315.127 29.9863L316.478 28.512ZM282.814 25.696L281.387 24.2952L278.049 27.696H282.814V25.696ZM296.254 12H298.254V7.10641L294.827 10.5992L296.254 12ZM268.046 92V2.39999H264.046V92H268.046ZM266.046 4.39999H309.182V0.399994H266.046V4.39999ZM309.182 4.39999C317.332 4.39999 324.25 5.73109 329.992 8.31936L331.636 4.67263C325.261 1.79956 317.757 0.399994 309.182 0.399994V4.39999ZM330.002 8.32362C335.829 10.9137 340.249 14.5987 343.345 19.362L346.699 17.182C343.139 11.7053 338.087 7.53965 331.626 4.66837L330.002 8.32362ZM343.354 19.3749C346.435 24.0367 348.014 29.6136 348.014 36.192H352.014C352.014 28.9464 350.265 22.5766 346.69 17.1691L343.354 19.3749ZM348.014 36.192C348.014 42.7704 346.435 48.3473 343.354 53.0091L346.69 55.2149C350.265 49.8074 352.014 43.4376 352.014 36.192H348.014ZM343.362 52.996C340.274 57.5888 335.859 61.1545 330.023 63.667L331.605 67.341C338.057 64.5628 343.114 60.5339 346.682 55.228L343.362 52.996ZM330.014 63.6711C324.265 66.1812 317.34 67.472 309.182 67.472V71.472C317.75 71.472 325.246 70.1175 331.614 67.3369L330.014 63.6711ZM309.182 67.472H282.814V71.472H309.182V67.472ZM284.171 70.9411L297.611 58.5251L294.897 55.5869L281.457 68.0029L284.171 70.9411ZM294.254 57.056V92H298.254V57.056H294.254ZM296.254 90H266.046V94H296.254V90ZM321.336 90.8816L299.32 58.2416L296.004 60.4784L318.02 93.1184L321.336 90.8816ZM297.662 61.36H329.662V57.36H297.662V61.36ZM328.01 60.4873L350.282 93.1273L353.586 90.8727L331.314 58.2327L328.01 60.4873ZM351.934 90H319.678V94H351.934V90ZM297.681 58.9832L284.241 45.2872L281.387 48.0888L294.827 61.7848L297.681 58.9832ZM282.814 48.688H307.262V44.688H282.814V48.688ZM307.262 48.688C311.688 48.688 315.368 47.7014 317.86 45.3173L315.096 42.4267C313.663 43.7972 311.198 44.688 307.262 44.688V48.688ZM317.829 45.3463C320.361 43.026 321.55 39.8927 321.55 36.192H317.55C317.55 38.9767 316.691 40.9634 315.127 42.3977L317.829 45.3463ZM321.55 36.192C321.55 32.4913 320.361 29.358 317.829 27.0377L315.127 29.9863C316.691 31.4206 317.55 33.4073 317.55 36.192H321.55ZM317.86 27.0667C315.368 24.6826 311.688 23.696 307.262 23.696V27.696C311.198 27.696 313.663 28.5868 315.096 29.9573L317.86 27.0667ZM307.262 23.696H282.814V27.696H307.262V23.696ZM284.241 27.0968L297.681 13.4008L294.827 10.5992L281.387 24.2952L284.241 27.0968ZM294.254 12V60.384H298.254V12H294.254ZM388.429 72.8L386.432 72.9003L386.674 77.7393L389.916 74.1379L388.429 72.8ZM386.765 39.648L385.284 38.3042L384.726 38.9191L384.768 39.7483L386.765 39.648ZM420.557 2.39999V0.399994H419.671L419.076 1.05617L420.557 2.39999ZM453.453 2.39999L454.934 3.74443L457.97 0.399994H453.453V2.39999ZM415.565 44.128L416.995 45.5261L417.021 45.4997L417.046 45.4724L415.565 44.128ZM398.797 61.28L397.367 59.8819L397.338 59.9114L397.31 59.9421L398.797 61.28ZM361.421 92H359.421V94H361.421V92ZM361.421 2.39999V0.399994H359.421V2.39999H361.421ZM391.117 2.39999H393.117V0.399994H391.117V2.39999ZM391.117 92V94H393.117V92H391.117ZM420.301 92L418.707 93.2075L419.307 94H420.301V92ZM393.933 57.184L392.479 55.8108L391.316 57.0417L392.339 58.3915L393.933 57.184ZM413.517 36.448L415.116 35.2468L413.692 33.3503L412.063 35.0748L413.517 36.448ZM455.245 92V94H459.249L456.844 90.7988L455.245 92ZM390.426 72.6997L388.762 39.5477L384.768 39.7483L386.432 72.9003L390.426 72.6997ZM388.246 40.9918L422.038 3.74382L419.076 1.05617L385.284 38.3042L388.246 40.9918ZM420.557 4.39999H453.453V0.399994H420.557V4.39999ZM451.972 1.05555L414.084 42.7836L417.046 45.4724L454.934 3.74443L451.972 1.05555ZM414.135 42.7299L397.367 59.8819L400.227 62.6781L416.995 45.5261L414.135 42.7299ZM397.31 59.9421L386.942 71.4621L389.916 74.1379L400.284 62.6179L397.31 59.9421ZM363.421 92V2.39999H359.421V92H363.421ZM361.421 4.39999H391.117V0.399994H361.421V4.39999ZM389.117 2.39999V92H393.117V2.39999H389.117ZM391.117 90H361.421V94H391.117V90ZM421.895 90.7925L395.527 55.9765L392.339 58.3915L418.707 93.2075L421.895 90.7925ZM395.387 58.5572L414.971 37.8212L412.063 35.0748L392.479 55.8108L395.387 58.5572ZM411.918 37.6492L453.646 93.2012L456.844 90.7988L415.116 35.2468L411.918 37.6492ZM455.245 90H420.301V94H455.245V90ZM469.069 91.488L469.543 89.545L469.069 91.488ZM451.789 84.832L449.96 84.0237L449.248 85.6341L450.755 86.5441L451.789 84.832ZM461.517 62.816L462.52 61.0859L460.59 59.9661L459.688 62.0077L461.517 62.816ZM475.725 68.832L475.159 70.7502L475.177 70.7557L475.196 70.7608L475.725 68.832ZM497.869 70.496L498.281 72.4531L498.318 72.4454L498.354 72.4363L497.869 70.496ZM501.581 68.832L502.91 70.3268L502.954 70.2878L502.995 70.2462L501.581 68.832ZM500.045 62.304L499.117 64.0757L500.045 62.304ZM492.877 60L492.419 61.9468L492.452 61.9546L492.485 61.9612L492.877 60ZM483.277 57.952L482.848 59.9055L482.871 59.9105L482.894 59.915L483.277 57.952ZM472.653 55.008L472.007 56.9007L472.014 56.9031L472.021 56.9054L472.653 55.008ZM462.925 50.272L461.804 51.9286L461.815 51.9361L461.827 51.9434L462.925 50.272ZM455.885 42.592L454.135 43.5594L454.14 43.5693L454.146 43.5792L455.885 42.592ZM457.805 15.456L456.155 14.3255L456.151 14.3322L457.805 15.456ZM471.757 4.448L470.954 2.61624L470.945 2.62038L471.757 4.448ZM512.845 2.272L512.42 4.22635L512.845 2.272ZM528.717 8.16L530.564 8.92693L531.244 7.28868L529.699 6.41769L528.717 8.16ZM519.629 30.048L518.735 31.8368L520.653 32.7963L521.476 30.8149L519.629 30.048ZM506.701 25.056L506.178 26.9865L506.188 26.9891L506.701 25.056ZM487.757 24.16L487.182 22.2443L487.757 24.16ZM484.045 26.208L482.558 24.8701L482.52 24.9132L482.483 24.9586L484.045 26.208ZM485.709 32.736L484.781 34.5077L484.815 34.5253L484.849 34.5417L485.709 32.736ZM492.749 34.912L492.346 36.8709L492.357 36.8732L492.749 34.912ZM502.477 36.832L502.094 38.795L502.103 38.7967L502.477 36.832ZM513.101 39.648L512.455 41.5407L513.101 39.648ZM522.701 44.384L521.58 46.0406L521.591 46.0481L521.603 46.0554L522.701 44.384ZM529.869 52.064L528.13 53.0512L529.869 52.064ZM527.821 78.944L526.171 77.8135L526.167 77.8202L527.821 78.944ZM513.997 89.952L514.809 91.7796L514.82 91.7749L514.83 91.7701L513.997 89.952ZM490.829 92.048C483.473 92.048 476.379 91.2122 469.543 89.545L468.595 93.431C475.754 95.1771 483.167 96.048 490.829 96.048V92.048ZM469.543 89.545C462.676 87.8702 457.121 85.7153 452.823 83.1199L450.755 86.5441C455.502 89.41 461.467 91.6925 468.595 93.431L469.543 89.545ZM453.618 85.6403L463.346 63.6243L459.688 62.0077L449.96 84.0237L453.618 85.6403ZM460.514 64.5461C464.931 67.1082 469.816 69.1736 475.159 70.7502L476.291 66.9138C471.223 65.4184 466.636 63.4732 462.52 61.0859L460.514 64.5461ZM475.196 70.7608C480.641 72.2537 485.939 73.008 491.085 73.008V69.008C486.332 69.008 481.391 68.3117 476.254 66.9032L475.196 70.7608ZM491.085 73.008C494.038 73.008 496.46 72.8365 498.281 72.4531L497.457 68.5389C496.035 68.8382 493.934 69.008 491.085 69.008V73.008ZM498.354 72.4363C500.18 71.9798 501.786 71.3259 502.91 70.3268L500.252 67.3372C499.84 67.7035 498.971 68.1588 497.384 68.5557L498.354 72.4363ZM502.995 70.2462C504.113 69.1284 504.733 67.7331 504.733 66.144H500.733C500.733 66.6029 500.585 66.9996 500.167 67.4178L502.995 70.2462ZM504.733 66.144C504.733 63.5827 503.23 61.7147 500.973 60.5323L499.117 64.0757C500.444 64.7706 500.733 65.4626 500.733 66.144H504.733ZM500.973 60.5323C498.95 59.4728 496.358 58.6567 493.269 58.0388L492.485 61.9612C495.369 62.538 497.556 63.2579 499.117 64.0757L500.973 60.5323ZM493.335 58.0532C490.405 57.3636 487.179 56.6757 483.66 55.989L482.894 59.915C486.372 60.5937 489.547 61.271 492.419 61.9468L493.335 58.0532ZM483.706 55.9985C480.28 55.2464 476.806 54.2842 473.285 53.1106L472.021 56.9054C475.668 58.1211 479.277 59.1216 482.848 59.9055L483.706 55.9985ZM473.299 53.1153C469.955 51.9732 466.864 50.4676 464.023 48.6006L461.827 51.9434C464.959 54.0017 468.354 55.6535 472.007 56.9007L473.299 53.1153ZM464.046 48.6154C461.409 46.8316 459.27 44.5044 457.624 41.6048L454.146 43.5792C456.084 46.9943 458.639 49.787 461.804 51.9286L464.046 48.6154ZM457.635 41.6246C456.048 38.7518 455.197 35.0958 455.197 30.56H451.197C451.197 35.5815 452.138 39.9469 454.135 43.5594L457.635 41.6246ZM455.197 30.56C455.197 25.4079 456.616 20.7658 459.459 16.5798L456.151 14.3322C452.85 19.1915 451.197 24.6188 451.197 30.56H455.197ZM459.455 16.5865C462.364 12.3409 466.694 8.88672 472.569 6.27562L470.945 2.62038C464.532 5.47061 459.561 9.35505 456.155 14.3255L459.455 16.5865ZM472.56 6.27974C478.463 3.69197 485.893 2.352 494.925 2.352V-1.648C485.525 -1.648 477.509 -0.257309 470.954 2.61626L472.56 6.27974ZM494.925 2.352C500.842 2.352 506.672 2.97686 512.42 4.22635L513.27 0.317642C507.242 -0.992868 501.126 -1.648 494.925 -1.648V2.352ZM512.42 4.22635C518.136 5.46886 523.235 7.36593 527.735 9.9023L529.699 6.41769C524.812 3.66339 519.33 1.63513 513.27 0.317642L512.42 4.22635ZM526.87 7.39307L517.782 29.2811L521.476 30.8149L530.564 8.92693L526.87 7.39307ZM520.523 28.2591C515.982 25.9882 511.544 24.2718 507.214 23.1229L506.188 26.9891C510.22 28.0588 514.402 29.6705 518.735 31.8368L520.523 28.2591ZM507.224 23.1255C502.971 21.9738 498.785 21.392 494.669 21.392V25.392C498.404 25.392 502.239 25.9196 506.178 26.9865L507.224 23.1255ZM494.669 21.392C491.679 21.392 489.155 21.6525 487.182 22.2443L488.332 26.0756C489.772 25.6435 491.857 25.392 494.669 25.392V21.392ZM487.182 22.2443C485.302 22.8083 483.672 23.6331 482.558 24.8701L485.532 27.5459C485.954 27.0762 486.798 26.5357 488.332 26.0756L487.182 22.2443ZM482.483 24.9586C481.537 26.141 481.021 27.5142 481.021 29.024H485.021C485.021 28.4858 485.187 27.9817 485.607 27.4574L482.483 24.9586ZM481.021 29.024C481.021 31.5436 482.573 33.3513 484.781 34.5077L486.637 30.9643C485.261 30.2434 485.021 29.5764 485.021 29.024H481.021ZM484.849 34.5417C486.839 35.4893 489.356 36.2553 492.346 36.8709L493.152 32.9531C490.34 32.374 488.163 31.6894 486.569 30.9303L484.849 34.5417ZM492.357 36.8732C495.347 37.4712 498.593 38.1118 502.094 38.795L502.86 34.869C499.364 34.1869 496.124 33.5475 493.141 32.9508L492.357 36.8732ZM502.103 38.7967C505.593 39.4615 509.044 40.376 512.455 41.5407L513.747 37.7553C510.161 36.5307 506.529 35.5678 502.851 34.8673L502.103 38.7967ZM512.455 41.5407C515.795 42.6812 518.834 44.1827 521.58 46.0406L523.822 42.7274C520.765 40.66 517.405 39.0041 513.747 37.7553L512.455 41.5407ZM521.603 46.0554C524.32 47.8412 526.492 50.165 528.13 53.0512L531.608 51.0768C529.663 47.6484 527.055 44.8521 523.799 42.7126L521.603 46.0554ZM528.13 53.0512C529.708 55.8319 530.557 59.3939 530.557 63.84H534.557C534.557 58.8994 533.614 54.6108 531.608 51.0768L528.13 53.0512ZM530.557 63.84C530.557 68.8881 529.106 73.5303 526.171 77.8135L529.471 80.0745C532.851 75.1417 534.557 69.7145 534.557 63.84H530.557ZM526.167 77.8202C523.343 81.9769 519.054 85.4342 513.164 88.1339L514.83 91.7701C521.228 88.8378 526.155 84.9564 529.475 80.0678L526.167 77.8202ZM513.185 88.1244C507.375 90.7067 499.951 92.048 490.829 92.048V96.048C500.31 96.048 508.331 94.6587 514.809 91.7796L513.185 88.1244Z" fill="#D9D9D9"/>
</svg>